<svg fill="#000000" xmlns="http://www.w3.org/2000/svg"  viewBox="0 0 16 16" width="32px" height="32px"><path fill="none" stroke="#000000" stroke-miterlimit="10" d="M3.5 7.5A3 3 0 1 0 3.5 13.5 3 3 0 1 0 3.5 7.5zM12.5 7.5A3 3 0 1 0 12.5 13.5 3 3 0 1 0 12.5 7.5z"/><path fill="none" stroke="#000000" stroke-miterlimit="10" d="M15.5 10.5c0-1.349-.909-4.061-1.502-5.685-.253-.692-.864-1.157-1.576-1.268C12.23 2.942 11.669 2.5 11 2.5c-.652 0-1.202.419-1.408 1H6.408C6.202 2.919 5.652 2.5 5 2.5c-.664 0-1.22.434-1.418 1.031-.716.077-1.349.513-1.63 1.187C1.36 6.136.5 8.533.5 10.5M6.5 11.5L9.5 11.5M6.5 9.5L9.5 9.5"/></svg>