<svg fill="#000000" xmlns="http://www.w3.org/2000/svg"  viewBox="0 0 50 50" width="32px" height="32px"><path fill="none" stroke="#000000" stroke-linecap="round" stroke-miterlimit="10" stroke-width="2" d="M40 26A9 9 0 1 0 40 44 9 9 0 1 0 40 26zM25 26A3 3 0 1 0 25 32 3 3 0 1 0 25 26zM10 26A9 9 0 1 0 10 44 9 9 0 1 0 10 26zM5 35c0 2.8 2.2 5 5 5M36 35c0 2.8 2.2 5 5 5"/><path fill="none" stroke="#000000" stroke-linecap="round" stroke-miterlimit="10" stroke-width="2" d="M48.6 32.4c0 0-3.2-12.7-4.5-17-.8-2.4-1.9-5.2-6.8-5.2-5.3 0-7.2 6.4-8.6 5.2-1-.8-2.3-1.3-3.6-1.3s-2.7.5-3.6 1.3c-1.5 1.2-3.3-5.2-8.6-5.2-5 0-6.1 2.8-6.8 5.2-1.4 4.3-4.5 17-4.5 17M18.9 32.9c0 0 1.7 3.1 6.1 3.1s6.1-3.1 6.1-3.1"/><path fill="none" stroke="#000000" stroke-linecap="round" stroke-miterlimit="10" stroke-width="2" d="M41 11C41 11 41 11 41 11c0-.3 0-.5-.1-.8C40.6 7.8 38.5 6 36 6c-2.8 0-5 2.2-5 5 0 .8.2 1.6.5 2.3M9 11C9 11 9 11 9 11c0-.3 0-.5.1-.8C9.4 7.8 11.5 6 14 6c2.8 0 5 2.2 5 5 0 .8-.2 1.6-.5 2.3"/></svg>